<?xml version="1.0" encoding="utf-8"?>
<!-- Generator: Adobe Illustrator 22.1.0, SVG Export Plug-In . SVG Version: 6.00 Build 0)  -->
<svg version="1.1" xmlns="http://www.w3.org/2000/svg" xmlns:xlink="http://www.w3.org/1999/xlink" x="0px" y="0px"
	 viewBox="0 0 1345.4 804" style="enable-background:new 0 0 1345.4 804;" xml:space="preserve">
<style type="text/css">
	.st0{display:none;}
	.st1{display:inline;fill:#F0F9FC;}
	.st2{clip-path:url(#SVGID_2_);}
	.st3{fill:#F99F26;}
	.st4{fill:#851C39;}
	.st5{fill:#283655;}
	.st6{fill:#DD7800;}
	.st7{fill:#EF5757;}
	.st8{fill:#562A45;}
	.st9{fill:#D0E1F6;}
	.st10{fill:#4D648D;}
	.st11{fill:#F0A039;}
	.st12{fill:#808080;}
	.st13{fill:#FADF5C;}
	.st14{fill:none;stroke:url(#SVGID_3_);stroke-miterlimit:10;}
	.st15{fill:none;stroke:url(#SVGID_4_);stroke-miterlimit:10;}
	.st16{fill:none;stroke:url(#SVGID_5_);stroke-miterlimit:10;}
	.st17{fill:none;stroke:url(#SVGID_6_);stroke-miterlimit:10;}
	.st18{fill:none;stroke:url(#SVGID_7_);stroke-miterlimit:10;}
	.st19{fill:none;stroke:url(#SVGID_8_);stroke-miterlimit:10;}
	.st20{fill:none;stroke:url(#SVGID_9_);stroke-miterlimit:10;}
	.st21{fill:none;stroke:url(#SVGID_10_);stroke-miterlimit:10;}
	.st22{fill:none;stroke:url(#SVGID_11_);stroke-miterlimit:10;}
	.st23{fill:none;stroke:url(#SVGID_12_);stroke-miterlimit:10;}
	.st24{fill:none;stroke:url(#SVGID_13_);stroke-miterlimit:10;}
	.st25{fill:none;stroke:url(#SVGID_14_);stroke-miterlimit:10;}
	.st26{fill:none;stroke:url(#SVGID_15_);stroke-miterlimit:10;}
	.st27{fill:none;stroke:url(#SVGID_16_);stroke-miterlimit:10;}
	.st28{fill:none;stroke:url(#SVGID_17_);stroke-miterlimit:10;}
	.st29{fill:none;stroke:url(#SVGID_18_);stroke-miterlimit:10;}
	.st30{fill:none;stroke:url(#SVGID_19_);stroke-miterlimit:10;}
	.st31{fill:#1E1F26;}
	.st32{fill:none;stroke:url(#SVGID_20_);stroke-miterlimit:10;}
	.st33{fill:none;stroke:url(#SVGID_21_);stroke-miterlimit:10;}
	.st34{fill:none;stroke:url(#SVGID_22_);stroke-miterlimit:10;}
	.st35{fill:none;stroke:url(#SVGID_23_);stroke-miterlimit:10;}
	.st36{fill:none;stroke:url(#SVGID_24_);stroke-miterlimit:10;}
	.st37{fill:none;stroke:url(#SVGID_25_);stroke-miterlimit:10;}
	.st38{fill:none;stroke:url(#SVGID_26_);stroke-miterlimit:10;}
	.st39{fill:none;stroke:url(#SVGID_27_);stroke-miterlimit:10;}
	.st40{fill:none;stroke:url(#SVGID_28_);stroke-miterlimit:10;}
	.st41{fill:none;stroke:url(#SVGID_29_);stroke-miterlimit:10;}
	.st42{fill:none;stroke:url(#SVGID_30_);stroke-miterlimit:10;}
	.st43{fill:none;stroke:url(#SVGID_31_);stroke-miterlimit:10;}
	.st44{fill:none;stroke:url(#SVGID_32_);stroke-miterlimit:10;}
	.st45{fill:none;stroke:url(#SVGID_33_);stroke-miterlimit:10;}
	.st46{fill:none;stroke:url(#SVGID_34_);stroke-miterlimit:10;}
	.st47{fill:none;stroke:url(#SVGID_35_);stroke-miterlimit:10;}
	.st48{fill:none;stroke:url(#SVGID_36_);stroke-miterlimit:10;}
	.st49{display:inline;}
	.st50{fill:#4D4D4D;}
	.st51{font-family:'Raleway-SemiBold';}
	.st52{font-size:32.6627px;}
	.st53{font-family:'Raleway-Light';}
	.st54{font-size:23.6746px;}
	.st55{fill:#FFFFFF;}
</style>
<g id="Layer_3" class="st0">
	<rect x="-19.6" y="-61" class="st1" width="1418" height="922"/>
</g>
<g id="BACKGROUND">
	<g>
		<defs>
			<rect id="SVGID_1_" x="0.1" y="-0.3" width="1345.1" height="803.3"/>
		</defs>
		<use xlink:href="#SVGID_1_"  style="display:none;overflow:visible;fill:#FFFFFF;"/>
		<clipPath id="SVGID_2_">
			<use xlink:href="#SVGID_1_"  style="display:none;overflow:visible;"/>
		</clipPath>
		<g class="st2">
			<g>
				<g>
					<polygon class="st3" points="217.9,39.2 12.5,-100.7 398.8,-155.2 					"/>
					<polygon class="st4" points="-2.6,-123.1 224.4,39.6 154.5,160.1 					"/>
					<polygon class="st5" points="154.5,160.1 -2.6,-123.1 1.2,292.5 					"/>
					<polygon class="st6" points="154.5,160.1 147.3,335.8 1.2,292.5 					"/>
					<polygon class="st7" points="147.3,335.8 -3.5,439.3 1.2,292.5 					"/>
					<polygon class="st4" points="147.3,335.8 358.5,509.8 -3.5,439.3 					"/>
					<polygon class="st8" points="358.5,509.8 144.3,594.7 -3.5,439.3 					"/>
					<polygon class="st9" points="144.3,594.7 -9.1,533.8 -3.5,439.3 					"/>
					<polygon class="st5" points="358.5,509.8 298.7,298.1 147.3,335.8 					"/>
					<polygon class="st10" points="298.7,298.1 154.5,160.1 147.3,335.8 					"/>
					<polygon class="st9" points="298.7,298.1 312.6,176.6 154.5,160.1 					"/>
					<polygon class="st7" points="312.6,176.6 224.4,39.6 154.5,160.1 					"/>
					<polygon class="st10" points="144.3,594.7 57.9,670.4 -9.1,533.8 					"/>
					<polygon class="st5" points="57.9,670.4 -23.2,869.8 -9.1,533.8 					"/>
					<polygon class="st8" points="170.1,639.1 273.9,610.8 166,716.3 					"/>
					<polygon class="st11" points="340.1,185.5 329.1,304.1 381.9,226.7 					"/>
					<polygon class="st12" points="293.8,1.9 374.1,80.6 349.8,-18.6 					"/>
					<polygon class="st13" points="173.3,-156.5 339.6,-228.1 210.7,-225.4 					"/>
				</g>
			</g>
			<g>
				<g>
					
						<radialGradient id="SVGID_3_" cx="110.7165" cy="49.0711" r="144.2858" gradientTransform="matrix(0.9998 1.880000e-02 -1.880000e-02 0.9998 7.2044 -3.9689)" gradientUnits="userSpaceOnUse">
						<stop  offset="0" style="stop-color:#F7CE46"/>
						<stop  offset="1" style="stop-color:#F2AD3D"/>
					</radialGradient>
					<polygon class="st14" points="-8,-111.3 245.3,70.4 167.3,204.9 					"/>
					
						<radialGradient id="SVGID_4_" cx="73.4521" cy="124.4675" r="177.1961" gradientTransform="matrix(0.9998 1.880000e-02 -1.880000e-02 0.9998 7.2044 -3.9689)" gradientUnits="userSpaceOnUse">
						<stop  offset="0" style="stop-color:#F7CE46"/>
						<stop  offset="1" style="stop-color:#F2AD3D"/>
					</radialGradient>
					<polygon class="st15" points="167.3,204.9 -8,-111.3 -3.8,352.7 					"/>
					
						<radialGradient id="SVGID_5_" cx="79.6352" cy="303.6941" r="92.2432" gradientTransform="matrix(0.9998 1.880000e-02 -1.880000e-02 0.9998 7.2044 -3.9689)" gradientUnits="userSpaceOnUse">
						<stop  offset="0" style="stop-color:#F7CE46"/>
						<stop  offset="1" style="stop-color:#F2AD3D"/>
					</radialGradient>
					<polygon class="st16" points="167.3,204.9 159.3,401 -3.8,352.7 					"/>
					
						<radialGradient id="SVGID_6_" cx="76.9574" cy="438.9186" r="83.334" gradientTransform="matrix(0.9998 1.880000e-02 -1.880000e-02 0.9998 7.2044 -3.9689)" gradientUnits="userSpaceOnUse">
						<stop  offset="0" style="stop-color:#F7CE46"/>
						<stop  offset="1" style="stop-color:#F2AD3D"/>
					</radialGradient>
					<polygon class="st17" points="159.3,401 -9,516.5 -3.8,352.7 					"/>
					
						<radialGradient id="SVGID_7_" cx="196.6569" cy="497.1044" r="159.5247" gradientTransform="matrix(0.9998 1.880000e-02 -1.880000e-02 0.9998 7.2044 -3.9689)" gradientUnits="userSpaceOnUse">
						<stop  offset="0" style="stop-color:#F7CE46"/>
						<stop  offset="1" style="stop-color:#F2AD3D"/>
					</radialGradient>
					<polygon class="st18" points="159.3,401 395.1,595.3 -9,516.5 					"/>
					
						<radialGradient id="SVGID_8_" cx="196.5151" cy="605.8453" r="156.7586" gradientTransform="matrix(0.9998 1.880000e-02 -1.880000e-02 0.9998 7.2044 -3.9689)" gradientUnits="userSpaceOnUse">
						<stop  offset="0" style="stop-color:#F7CE46"/>
						<stop  offset="1" style="stop-color:#F2AD3D"/>
					</radialGradient>
					<polygon class="st19" points="395.1,595.3 156,690.1 -9,516.5 					"/>
					
						<radialGradient id="SVGID_9_" cx="76.2801" cy="605.9794" r="86.9725" gradientTransform="matrix(0.9998 1.880000e-02 -1.880000e-02 0.9998 7.2044 -3.9689)" gradientUnits="userSpaceOnUse">
						<stop  offset="0" style="stop-color:#F7CE46"/>
						<stop  offset="1" style="stop-color:#F2AD3D"/>
					</radialGradient>
					<polygon class="st20" points="156,690.1 -15.3,622.1 -9,516.5 					"/>
					
						<radialGradient id="SVGID_10_" cx="279.3347" cy="474.74" r="119.6505" gradientTransform="matrix(0.9998 1.880000e-02 -1.880000e-02 0.9998 7.2044 -3.9689)" gradientUnits="userSpaceOnUse">
						<stop  offset="0" style="stop-color:#F7CE46"/>
						<stop  offset="1" style="stop-color:#F2AD3D"/>
					</radialGradient>
					<polygon class="st21" points="395.1,595.3 328.4,358.9 159.3,401 					"/>
					
						<radialGradient id="SVGID_11_" cx="244.0634" cy="303.7085" r="92.2327" gradientTransform="matrix(0.9998 1.880000e-02 -1.880000e-02 0.9998 7.2044 -3.9689)" gradientUnits="userSpaceOnUse">
						<stop  offset="0" style="stop-color:#F7CE46"/>
						<stop  offset="1" style="stop-color:#F2AD3D"/>
					</radialGradient>
					<polygon class="st22" points="328.4,358.9 167.3,204.9 159.3,401 					"/>
					
						<radialGradient id="SVGID_12_" cx="252.0139" cy="281.5046" r="83.1359" gradientTransform="matrix(0.9998 1.880000e-02 -1.880000e-02 0.9998 7.2044 -3.9689)" gradientUnits="userSpaceOnUse">
						<stop  offset="0" style="stop-color:#F7CE46"/>
						<stop  offset="1" style="stop-color:#F2AD3D"/>
					</radialGradient>
					<polygon class="st23" points="328.4,358.9 343.9,223.3 167.3,204.9 					"/>
					
						<radialGradient id="SVGID_13_" cx="252.54" cy="145.2095" r="83.0656" gradientTransform="matrix(0.9998 1.880000e-02 -1.880000e-02 0.9998 7.2044 -3.9689)" gradientUnits="userSpaceOnUse">
						<stop  offset="0" style="stop-color:#F7CE46"/>
						<stop  offset="1" style="stop-color:#F2AD3D"/>
					</radialGradient>
					<polygon class="st24" points="343.9,223.3 245.3,70.4 167.3,204.9 					"/>
					
						<radialGradient id="SVGID_14_" cx="75.5135" cy="701.8641" r="82.0003" gradientTransform="matrix(0.9998 1.880000e-02 -1.880000e-02 0.9998 7.2044 -3.9689)" gradientUnits="userSpaceOnUse">
						<stop  offset="0" style="stop-color:#F7CE46"/>
						<stop  offset="1" style="stop-color:#F2AD3D"/>
					</radialGradient>
					<polygon class="st25" points="156,690.1 59.5,774.6 -15.3,622.1 					"/>
					
						<radialGradient id="SVGID_15_" cx="23.7782" cy="814.533" r="137.9186" gradientTransform="matrix(0.9998 1.880000e-02 -1.880000e-02 0.9998 7.2044 -3.9689)" gradientUnits="userSpaceOnUse">
						<stop  offset="0" style="stop-color:#F7CE46"/>
						<stop  offset="1" style="stop-color:#F2AD3D"/>
					</radialGradient>
					<polygon class="st26" points="59.5,774.6 -31,997.2 -15.3,622.1 					"/>
					
						<radialGradient id="SVGID_16_" cx="248.269" cy="766.4955" r="60.6975" gradientTransform="matrix(0.9998 1.880000e-02 -1.880000e-02 0.9998 7.2044 -3.9689)" gradientUnits="userSpaceOnUse">
						<stop  offset="0" style="stop-color:#F7CE46"/>
						<stop  offset="1" style="stop-color:#F2AD3D"/>
					</radialGradient>
					<polygon class="st27" points="184.8,739.6 300.7,708.1 180.2,825.8 					"/>
					
						<radialGradient id="SVGID_17_" cx="390.6052" cy="296.979" r="52.2563" gradientTransform="matrix(0.9998 1.880000e-02 -1.880000e-02 0.9998 7.2044 -3.9689)" gradientUnits="userSpaceOnUse">
						<stop  offset="0" style="stop-color:#F7CE46"/>
						<stop  offset="1" style="stop-color:#F2AD3D"/>
					</radialGradient>
					<polygon class="st28" points="374.5,233.2 362.3,365.7 421.2,279.2 					"/>
					
						<radialGradient id="SVGID_18_" cx="361.8552" cy="57.8281" r="51.5906" gradientTransform="matrix(0.9998 1.880000e-02 -1.880000e-02 0.9998 7.2044 -3.9689)" gradientUnits="userSpaceOnUse">
						<stop  offset="0" style="stop-color:#F7CE46"/>
						<stop  offset="1" style="stop-color:#F2AD3D"/>
					</radialGradient>
					<polygon class="st29" points="322.9,28.3 412.5,116.1 385.4,5.4 					"/>
					
						<radialGradient id="SVGID_19_" cx="271.1447" cy="-189.4496" r="72.8647" gradientTransform="matrix(0.9998 1.880000e-02 -1.880000e-02 0.9998 7.2044 -3.9689)" gradientUnits="userSpaceOnUse">
						<stop  offset="0" style="stop-color:#F7CE46"/>
						<stop  offset="1" style="stop-color:#F2AD3D"/>
					</radialGradient>
					<polygon class="st30" points="188.3,-148.6 373.9,-228.5 230.1,-225.4 					"/>
				</g>
			</g>
		</g>
		<g class="st2">
			<g>
				<polygon class="st4" points="1373.1,988.4 1158.6,849.6 1217.2,736.5 				"/>
				<polygon class="st5" points="1217.2,736.5 1373.1,988.4 1351.5,608.7 				"/>
				<polygon class="st6" points="1217.2,736.5 1216.1,575.5 1351.5,608.7 				"/>
				<polygon class="st7" points="1216.1,575.5 1349.3,474.4 1351.5,608.7 				"/>
				<polygon class="st4" points="1216.1,575.5 1015.4,425.7 1349.3,474.4 				"/>
				<polygon class="st8" points="1015.4,425.7 1207.4,338.8 1349.3,474.4 				"/>
				<polygon class="st9" points="1207.4,338.8 1350.3,387.7 1349.3,474.4 				"/>
				<polygon class="st5" points="1015.4,425.7 1079.3,616.7 1216.1,575.5 				"/>
				<polygon class="st10" points="1079.3,616.7 1217.2,736.5 1216.1,575.5 				"/>
				<polygon class="st9" points="1079.3,616.7 1071.9,728.3 1217.2,736.5 				"/>
				<polygon class="st7" points="1071.9,728.3 1158.6,849.6 1217.2,736.5 				"/>
				<polygon class="st10" points="1207.4,338.8 1283.1,265.8 1350.3,387.7 				"/>
				<polygon class="st5" points="1283.1,265.8 1348.4,79.9 1350.3,387.7 				"/>
				<polygon class="st31" points="1181.9,299.3 1088.2,329.7 1182.3,228.6 				"/>
				<polygon class="st11" points="1046.4,721.4 1051.3,612.4 1006.4,685.6 				"/>
				<polygon class="st12" points="1096.8,887.1 1020,818.7 1046.5,908.3 				"/>
				<polygon class="st13" points="1213.9,1026.7 1065.1,1099.4 1182.7,1091.2 				"/>
			</g>
		</g>
		<g class="st2">
			<g>
				<radialGradient id="SVGID_20_" cx="1252.8132" cy="887.165" r="132.9736" gradientUnits="userSpaceOnUse">
					<stop  offset="0" style="stop-color:#F7CE46"/>
					<stop  offset="1" style="stop-color:#F2AD3D"/>
				</radialGradient>
				<polygon class="st32" points="1373.1,1028.7 1131.5,872.4 1197.6,745 				"/>
				<radialGradient id="SVGID_21_" cx="1285.3308" cy="815.354" r="164.5768" gradientUnits="userSpaceOnUse">
					<stop  offset="0" style="stop-color:#F7CE46"/>
					<stop  offset="1" style="stop-color:#F2AD3D"/>
				</radialGradient>
				<polygon class="st33" points="1197.6,745 1373.1,1028.7 1348.7,601.2 				"/>
				<radialGradient id="SVGID_22_" cx="1272.7445" cy="654.6473" r="84.5646" gradientUnits="userSpaceOnUse">
					<stop  offset="0" style="stop-color:#F7CE46"/>
					<stop  offset="1" style="stop-color:#F2AD3D"/>
				</radialGradient>
				<polygon class="st34" points="1197.6,745 1196.3,563.8 1348.7,601.2 				"/>
				<radialGradient id="SVGID_23_" cx="1272.1797" cy="525.3272" r="76.769" gradientUnits="userSpaceOnUse">
					<stop  offset="0" style="stop-color:#F7CE46"/>
					<stop  offset="1" style="stop-color:#F2AD3D"/>
				</radialGradient>
				<polygon class="st35" points="1196.3,563.8 1346.3,449.8 1348.7,601.2 				"/>
				<radialGradient id="SVGID_24_" cx="1157.9628" cy="479.3453" r="146.9422" gradientUnits="userSpaceOnUse">
					<stop  offset="0" style="stop-color:#F7CE46"/>
					<stop  offset="1" style="stop-color:#F2AD3D"/>
				</radialGradient>
				<polygon class="st36" points="1196.3,563.8 970.2,395.1 1346.3,449.8 				"/>
				<radialGradient id="SVGID_25_" cx="1158.1346" cy="373.5573" r="144.7423" gradientUnits="userSpaceOnUse">
					<stop  offset="0" style="stop-color:#F7CE46"/>
					<stop  offset="1" style="stop-color:#F2AD3D"/>
				</radialGradient>
				<polygon class="st37" points="970.2,395.1 1186.5,297.1 1346.3,449.8 				"/>
				<radialGradient id="SVGID_26_" cx="1266.2328" cy="373.4681" r="79.6581" gradientUnits="userSpaceOnUse">
					<stop  offset="0" style="stop-color:#F7CE46"/>
					<stop  offset="1" style="stop-color:#F2AD3D"/>
				</radialGradient>
				<polygon class="st38" points="1186.5,297.1 1347.5,352.2 1346.3,449.8 				"/>
				<radialGradient id="SVGID_27_" cx="1083.3035" cy="502.2115" r="111.3071" gradientUnits="userSpaceOnUse">
					<stop  offset="0" style="stop-color:#F7CE46"/>
					<stop  offset="1" style="stop-color:#F2AD3D"/>
				</radialGradient>
				<polygon class="st39" points="970.2,395.1 1042.2,610.1 1196.3,563.8 				"/>
				<radialGradient id="SVGID_28_" cx="1119.641" cy="654.6038" r="85.211" gradientUnits="userSpaceOnUse">
					<stop  offset="0" style="stop-color:#F7CE46"/>
					<stop  offset="1" style="stop-color:#F2AD3D"/>
				</radialGradient>
				<polygon class="st40" points="1042.2,610.1 1197.6,745 1196.3,563.8 				"/>
				<radialGradient id="SVGID_29_" cx="1116.1989" cy="677.3177" r="75.8724" gradientUnits="userSpaceOnUse">
					<stop  offset="0" style="stop-color:#F7CE46"/>
					<stop  offset="1" style="stop-color:#F2AD3D"/>
				</radialGradient>
				<polygon class="st41" points="1042.2,610.1 1033.9,735.8 1197.6,745 				"/>
				<radialGradient id="SVGID_30_" cx="1115.6423" cy="804.3181" r="76.1868" gradientUnits="userSpaceOnUse">
					<stop  offset="0" style="stop-color:#F7CE46"/>
					<stop  offset="1" style="stop-color:#F2AD3D"/>
				</radialGradient>
				<polygon class="st42" points="1033.9,735.8 1131.5,872.4 1197.6,745 				"/>
				<radialGradient id="SVGID_31_" cx="1267.0387" cy="283.6354" r="75.7114" gradientUnits="userSpaceOnUse">
					<stop  offset="0" style="stop-color:#F7CE46"/>
					<stop  offset="1" style="stop-color:#F2AD3D"/>
				</radialGradient>
				<polygon class="st43" points="1186.5,297.1 1271.7,215 1347.5,352.2 				"/>
				<radialGradient id="SVGID_32_" cx="1309.5837" cy="178.4859" r="127.1598" gradientUnits="userSpaceOnUse">
					<stop  offset="0" style="stop-color:#F7CE46"/>
					<stop  offset="1" style="stop-color:#F2AD3D"/>
				</radialGradient>
				<polygon class="st44" points="1271.7,215 1345.3,5.7 1347.5,352.2 				"/>
				<radialGradient id="SVGID_33_" cx="1104.6855" cy="229.9287" r="56.1132" gradientUnits="userSpaceOnUse">
					<stop  offset="0" style="stop-color:#F7CE46"/>
					<stop  offset="1" style="stop-color:#F2AD3D"/>
				</radialGradient>
				<polygon class="st45" points="1157.8,252.7 1052.3,287 1158.2,173.1 				"/>
				<radialGradient id="SVGID_34_" cx="985.4079" cy="666.275" r="48.0585" gradientUnits="userSpaceOnUse">
					<stop  offset="0" style="stop-color:#F7CE46"/>
					<stop  offset="1" style="stop-color:#F2AD3D"/>
				</radialGradient>
				<polygon class="st46" points="1005.3,728 1010.7,605.3 960.2,687.7 				"/>
				<radialGradient id="SVGID_35_" cx="1018.6555" cy="887.6573" r="48.0016" gradientUnits="userSpaceOnUse">
					<stop  offset="0" style="stop-color:#F7CE46"/>
					<stop  offset="1" style="stop-color:#F2AD3D"/>
				</radialGradient>
				<polygon class="st47" points="1061.9,914.7 975.4,837.7 1005.3,938.5 				"/>
				<radialGradient id="SVGID_36_" cx="1109.2743" cy="1112.533" r="67.3657" gradientUnits="userSpaceOnUse">
					<stop  offset="0" style="stop-color:#F7CE46"/>
					<stop  offset="1" style="stop-color:#F2AD3D"/>
				</radialGradient>
				<polygon class="st48" points="1193.8,1071.8 1026.2,1153.7 1158.7,1144.5 				"/>
			</g>
		</g>
	</g>
</g>
<g id="TEXT" class="st0">
	<g class="st49">
		<g>
			<g>
				<text transform="matrix(1 0 0 1 586.2553 271.0943)" class="st50 st51 st52">CURRENTLY</text>
				<text transform="matrix(1 0 0 1 536.3764 498.2184)"><tspan x="0" y="0" class="st50 st53 st54">twitch.com/</tspan><tspan x="118.8" y="0" class="st50 st51 st54">yourusername</tspan></text>
			</g>
			<g>
				<g>
					<g>
						<g>
							<g>
								<path class="st50" d="M728.7,555c0,3.2-2.6,5.8-5.8,5.8h-22.4c-3.2,0-5.8-2.6-5.8-5.8v-22.4c0-3.2,2.6-5.8,5.8-5.8h22.4
									c3.2,0,5.8,2.6,5.8,5.8V555z"/>
							</g>
							<g>
								<polygon class="st55" points="723.5,534.4 723.5,534.4 723.5,534.4 								"/>
								<path class="st55" d="M722.6,536.8c-0.5,0.1-0.9,0.1-0.9,0.1l0-0.1c0.5-0.4,1.7-1.6,1.9-2.1c0.1-0.2,0-0.3,0-0.3L722,535
									l-1.3,0.6l0,0c-0.9-0.9-2.3-1.6-3.8-1.6c-2.7,0-4.9,1.9-4.9,4.3c0,0.4,0.1,1.2,0.2,1.6c0,0.1,0-0.1,0,0
									c-1.7,0-4-0.8-5.9-1.8c-3.9-2-4.2-3.4-4.2-3.4c-0.6,0.7-0.9,2.8-0.3,4.5c0.4,1.1,1.8,2.1,1.8,2.1l0,0c0,0-0.6,0-1.3-0.2
									c-0.6-0.2-0.9-0.4-0.9-0.4c-0.4,0.9,0.4,2.6,1.7,3.8c0.8,0.7,2.2,1.1,2.2,1.1l-2.2,0.1c-0.1,2.1,4.5,3.4,4.5,3.4l0,0
									c-1.4,1-2.9,1.7-4.6,1.7c-0.9,0-1.7-0.1-2.5-0.4c2.2,1.8,5.1,3.1,8.2,2.9c8.2-0.4,12.9-7.5,13.1-14.5l0,0c0,0,0.4-0.2,1.2-1
									c0.8-0.8,1.3-1.8,1.3-1.8S723.1,536.7,722.6,536.8z"/>
								<path class="st55" d="M723.5,534.4C723.5,534.5,723.5,534.4,723.5,534.4L723.5,534.4z"/>
							</g>
						</g>
						<g>
							<path class="st50" d="M684.6,555c0,3.2-2.6,5.8-5.8,5.8h-22.4c-3.2,0-5.8-2.6-5.8-5.8v-22.4c0-3.2,2.6-5.8,5.8-5.8h22.4
								c3.2,0,5.8,2.6,5.8,5.8V555z"/>
							<path class="st55" d="M673.9,560.8v-13.1h4.4l0.7-5.1h-5.1v-3.3c0-1.5,0.4-2.5,2.5-2.5l2.7,0v-4.6c-0.5-0.1-2.1-0.2-3.9-0.2
								c-3.9,0-6.6,2.4-6.6,6.7v3.8h-4.4v5.1h4.4v13.1H673.9L673.9,560.8z"/>
						</g>
						<g>
							<path class="st50" d="M640,555c0,3.2-2.6,5.8-5.8,5.8h-22.4c-3.2,0-5.8-2.6-5.8-5.8v-22.4c0-3.2,2.6-5.8,5.8-5.8h22.4
								c3.2,0,5.8,2.6,5.8,5.8V555z"/>
							<g>
								<g>
									<path class="st55" d="M628.4,557.3h-10.9c-4.8,0-8.7-3.9-8.7-8.7V539c0-4.8,3.9-8.7,8.7-8.7h10.9c4.8,0,8.7,3.9,8.7,8.7
										v9.6C637.2,553.3,633.2,557.3,628.4,557.3z M617.6,532.2c-3.7,0-6.8,3-6.8,6.8v9.6c0,3.7,3,6.8,6.8,6.8h10.9
										c3.7,0,6.8-3,6.8-6.8V539c0-3.7-3-6.8-6.8-6.8H617.6z"/>
								</g>
								<g>
									<path class="st55" d="M623,551.5c-4.3,0-7.8-3.5-7.8-7.8c0-4.3,3.5-7.8,7.8-7.8c4.3,0,7.8,3.5,7.8,7.8
										C630.8,548,627.3,551.5,623,551.5z M623,537.9c-3.2,0-5.8,2.6-5.8,5.8c0,3.2,2.6,5.8,5.8,5.8c3.2,0,5.8-2.6,5.8-5.8
										C628.8,540.5,626.2,537.9,623,537.9z"/>
								</g>
								<g>
									<path class="st55" d="M632.3,536.2c0,0.9-0.7,1.6-1.6,1.6c-0.9,0-1.6-0.7-1.6-1.6c0-0.9,0.7-1.6,1.6-1.6
										C631.6,534.6,632.3,535.3,632.3,536.2z"/>
								</g>
							</g>
						</g>
					</g>
				</g>
				<g>
					<g>
						<g>
							<path class="st50" d="M882.3,339.6c-23.2,0-41,17.6-41,40.7c0,23.2,17.8,40.7,41.6,40.7c16.6,0,30.5-8.5,36.6-22.6l-21.8-5.6
								c-3.4,4.8-8.8,7.4-14.9,7.4c-8.5,0-14.8-5.2-16.9-13.6H922l0.3-6.8v-0.1C922,356.3,905.2,339.6,882.3,339.6z"/>
						</g>
						<path class="st55" d="M882.4,360.2c-7.5,0-12.9,3.7-15.6,10.4H897C894.4,363.8,889.4,360.2,882.4,360.2z"/>
						<path class="st50" d="M496.6,302.9v25.7c12.5,5.4,21.3,17.8,21.3,32.5c0,19.6-15.6,35.3-35.1,35.3s-35.1-15.7-35.1-35.3
							c0-14.6,8.7-27.1,21.3-32.5v-25.7c-26.2,6.3-45.6,29.9-45.6,58.2c0,33,26.5,59.8,59.5,59.8c32.8,0,59.5-26.7,59.5-59.8
							C542.2,332.8,522.8,309.2,496.6,302.9z"/>
						<path class="st50" d="M587.7,341v-9.2c0-7.1,3.9-9.7,8.2-9.7c3.4,0,7.3,1.7,9.6,4.9v-21.8c-1.7-2.6-7.2-4-14.3-4
							c-16.8,0-27.7,11.2-27.7,28.4V341h-12.2v20.9h12.2v57.5h24.2v-57.5h17.5V341H587.7z"/>
						<path class="st50" d="M641.6,331.8c0-7.1,3.9-9.7,8.2-9.7c3.4,0,7.3,1.7,9.6,4.9v-21.8c-1.7-2.6-7.2-4-14.3-4
							c-16.8,0-27.7,11.2-27.7,28.4V341h-11.6v20.9h11.6v57.5h24.2v-57.5h18.1V341h-18.1V331.8z"/>
						<rect x="605.2" y="341" class="st50" width="0.6" height="20.9"/>
						<rect x="671.4" y="302.7" class="st50" width="24.2" height="116.8"/>
						<path class="st50" d="M727.4,306.6c-7.6,0-13.8,6.2-13.8,13.7c0,7.5,6.2,13.7,13.8,13.7c7.6,0,13.8-6.1,13.8-13.7
							C741.1,312.6,735,306.6,727.4,306.6z"/>
						<rect x="715.3" y="341" class="st50" width="24.1" height="78.4"/>
						<path class="st50" d="M799.6,339.6c-5.9,0-11.6,1.7-16.5,6.3V341h-24.2v78.4h24.2v-47.6c0.1-5.8,4.6-10.1,10.8-10.1
							c5.9,0,10.2,4.2,10.2,10.1v47.6h24.4v-49.9C828.5,352.8,815.7,339.6,799.6,339.6z"/>
					</g>
				</g>
				<path class="st50" d="M482.7,353.2L482.7,353.2c-5.6,0-10.2-4.6-10.2-10.2v-42.1c0-5.6,4.6-10.2,10.2-10.2l0,0
					c5.6,0,10.2,4.6,10.2,10.2v42.1C492.9,348.6,488.3,353.2,482.7,353.2z"/>
			</g>
		</g>
		<line class="st50" x1="639.9" y1="451.9" x2="705.6" y2="451.9"/>
	</g>
</g>
</svg>
